<?xml version="1.0" encoding="utf-8"?>
<!-- Generator: Adobe Illustrator 24.1.0, SVG Export Plug-In . SVG Version: 6.00 Build 0)  -->
<svg version="1.1" id="Layer_1" xmlns="http://www.w3.org/2000/svg" xmlns:xlink="http://www.w3.org/1999/xlink" x="0px" y="0px"
	 viewBox="0 0 1024 1024" style="enable-background:new 0 0 1024 1024;" xml:space="preserve">
<style type="text/css">
	.st0{fill:#FFFFFF;}
	.st1{fill:none;}
	.st2{font-family:'Avenir-Heavy';}
	.st3{font-size:88px;}
	.st4{fill:url(#SVGID_1_);}
	.st5{fill:url(#SVGID_2_);}
	.st6{fill:url(#SVGID_3_);}
	.st7{fill:url(#SVGID_4_);}
	.st8{font-size:317.0363px;}
</style>
<rect x="699" y="418" class="st0" width="11" height="155"/>
<rect x="713.46" y="417.95" class="st1" width="173.54" height="174.05"/>
<text transform="matrix(1 0 0 1 713.4551 484.4766)"><tspan x="0" y="0" class="st0 st2 st3">kre</tspan><tspan x="0" y="88" class="st0 st2 st3">ativ</tspan></text>
<g>
	<g>
		
			<linearGradient id="SVGID_1_" gradientUnits="userSpaceOnUse" x1="397.7088" y1="-172.4079" x2="51.9684" y2="137.8073" gradientTransform="matrix(1 0 0 1 25.2219 406.6454)">
			<stop  offset="1.086869e-06" style="stop-color:#8AFF25"/>
			<stop  offset="0.0874" style="stop-color:#82FE28"/>
			<stop  offset="0.2219" style="stop-color:#6DFC2F"/>
			<stop  offset="0.3868" style="stop-color:#49F93A"/>
			<stop  offset="0.574" style="stop-color:#19F44A"/>
			<stop  offset="0.6604" style="stop-color:#00F252"/>
			<stop  offset="0.7435" style="stop-color:#00F76F"/>
			<stop  offset="0.8475" style="stop-color:#00FB8D"/>
			<stop  offset="0.9366" style="stop-color:#00FE9F"/>
			<stop  offset="1" style="stop-color:#00FFA6"/>
		</linearGradient>
		<path class="st4" d="M109.19,480.13c-23.86-14.84-60.36-35.95-86.02-51.63c-26.01-18.16-17.34-58.2,10.8-68.49
			c48.15-26.38,95.93-53.45,144.12-79.75c40.53-15.52,125.32-99.23,143.7-20.18c1.53,43.35-64.97,53.23-93.49,75.95
			c-37.65,20.79-74.02,41.77-111.98,62.3c57.78,36.11,116.46,69.87,174.75,105.05c10.82,6.45,20.96,13.19,24.72,26.35
			c9.99,30.81-26.25,59.12-53.65,41.86C197.73,533.42,161.21,511.51,109.19,480.13z"/>
	</g>
	
		<linearGradient id="SVGID_2_" gradientUnits="userSpaceOnUse" x1="1.3309" y1="275.1809" x2="257.4869" y2="88.3887" gradientTransform="matrix(1 0 0 1 25.2219 406.6454)">
		<stop  offset="0" style="stop-color:#FFF200"/>
		<stop  offset="0.4197" style="stop-color:#FFFB55"/>
		<stop  offset="0.5361" style="stop-color:#FFE368"/>
		<stop  offset="0.7802" style="stop-color:#FFA699"/>
		<stop  offset="1" style="stop-color:#FF6AC9"/>
	</linearGradient>
	<path class="st5" d="M116.02,561.2c38.43,23.28,75.71,45.09,113.67,68.62c17.13,10.67,19.58,37.86,6.14,52.88
		c-33.3,41.16-113.81-40.3-152.54-55.57c-31.88-20.61-104.74-46.7-65.63-93.67c24.13-18.52,77.05-41.92,91.52-53.38
		c-7.61-4.61,82.85,49.82,76.22,45.89C161.61,530.09,140.03,550.53,116.02,561.2z"/>
	<g>
		
			<linearGradient id="SVGID_3_" gradientUnits="userSpaceOnUse" x1="221.657" y1="314.6758" x2="286.2276" y2="277.3959" gradientTransform="matrix(1 0 0 1 25.2219 406.6454)">
			<stop  offset="0" style="stop-color:#FF6AC9"/>
			<stop  offset="0.2435" style="stop-color:#FF67CA"/>
			<stop  offset="0.4521" style="stop-color:#FF5CCC"/>
			<stop  offset="0.6478" style="stop-color:#FE4AD0"/>
			<stop  offset="0.8345" style="stop-color:#FD32D5"/>
			<stop  offset="1" style="stop-color:#FC15DB"/>
		</linearGradient>
		<path class="st6" d="M315.37,702.39c1.5,49.19-75.43,48.98-73.12-2.32C243.92,655.16,316.83,654.7,315.37,702.39z"/>
	</g>
	
		<linearGradient id="SVGID_4_" gradientUnits="userSpaceOnUse" x1="564.3926" y1="692.4545" x2="563.5668" y2="347.9645" gradientTransform="matrix(0.646 1.1189 -0.9875 0.5701 331.6068 -608.9799)">
		<stop  offset="0" style="stop-color:#2994FF"/>
		<stop  offset="0.0285" style="stop-color:#2798FF"/>
		<stop  offset="0.3294" style="stop-color:#16C2FF"/>
		<stop  offset="0.6021" style="stop-color:#0AE0FF"/>
		<stop  offset="0.8347" style="stop-color:#03F2FF"/>
		<stop  offset="1" style="stop-color:#00F9FF"/>
	</linearGradient>
	<path class="st7" d="M12.17,416.92c-10.99-19.04-4.47-43.39,14.57-54.39c0,0,239.1-138.05,239.1-138.05
		c19.04-10.99,43.39-4.47,54.39,14.57c10.99,19.04,4.47,43.39-14.57,54.39L66.56,431.49C47.51,442.49,23.16,435.96,12.17,416.92z"/>
</g>
<rect x="368.81" y="201.13" width="39.63" height="558.42"/>
<rect x="420.88" y="200.95" class="st1" width="625.23" height="627.05"/>
<text transform="matrix(1 0 0 1 420.8848 440.6265)"><tspan x="0" y="0" class="st2 st8">kre</tspan><tspan x="0" y="317.04" class="st2 st8">ativ</tspan></text>
</svg>
