<svg width="684" height="445" viewBox="0 0 684 445" fill="none" xmlns="http://www.w3.org/2000/svg">
<g opacity="0.1">
<path opacity="0.1" d="M274.486 351.806C280.836 351.806 285.984 345.061 285.984 336.74C285.984 328.419 280.836 321.674 274.486 321.674C268.135 321.674 262.987 328.419 262.987 336.74C262.987 345.061 268.135 351.806 274.486 351.806Z" fill="#3F3D56"/>
<path opacity="0.1" d="M283.576 272.436C285.207 269.64 286.062 266.534 286.062 263.272C286.062 254.962 280.856 248.206 274.563 248.206C268.27 248.206 263.065 254.885 263.065 263.272C263.065 266.456 263.92 269.563 265.551 272.436C262.366 278.183 262.366 285.173 265.551 290.842C262.366 296.589 262.366 303.579 265.551 309.248C263.92 312.044 263.065 315.15 263.065 318.412C263.065 326.722 268.27 333.478 274.563 333.478C280.856 333.478 286.062 326.722 286.062 318.412C286.062 315.228 285.207 312.121 283.576 309.248C286.761 303.501 286.761 296.511 283.576 290.842C286.839 285.095 286.839 278.106 283.576 272.436Z" fill="#3F3D56"/>
<path opacity="0.1" d="M274.486 259.933C280.836 259.933 285.984 253.187 285.984 244.866C285.984 236.546 280.836 229.8 274.486 229.8C268.135 229.8 262.987 236.546 262.987 244.866C262.987 253.187 268.135 259.933 274.486 259.933Z" fill="#3F3D56"/>
<path opacity="0.1" d="M274.486 241.527C280.836 241.527 285.984 234.782 285.984 226.461C285.984 218.14 280.836 211.394 274.486 211.394C268.135 211.394 262.987 218.14 262.987 226.461C262.987 234.782 268.135 241.527 274.486 241.527Z" fill="#3F3D56"/>
<path opacity="0.1" d="M231.522 100.727C229.89 98.7853 228.492 96.6108 227.249 94.514L257.393 89.6213L224.763 89.7766C218.47 75.9529 218.081 60.1876 223.753 46.1309L267.571 68.808L227.249 39.1414C242.321 12.6588 275.884 3.49478 302.377 18.6388C328.87 33.7827 338.038 67.2548 322.888 93.7373C321.489 96.3002 319.858 98.5524 318.071 100.882C320.557 103.989 322.577 107.406 324.286 110.901L285.129 131.248L326.85 117.191C332.755 134.82 329.492 154.236 317.993 168.836C336.717 192.756 332.599 227.237 308.825 246.109C284.896 264.825 250.401 260.709 231.522 236.945C215.751 216.986 215.751 188.873 231.522 168.914C215.906 148.877 215.906 120.686 231.522 100.727Z" fill="#6C63FF"/>
<path opacity="0.1" d="M329.802 134.743C329.802 147.091 325.685 159.051 317.993 168.758C336.717 192.678 332.599 227.16 308.826 246.031C284.896 264.748 250.401 260.632 231.522 236.867C215.751 216.908 215.751 188.795 231.522 168.836C224.141 159.439 329.802 128.53 329.802 134.743Z" fill="black"/>
</g>
<g opacity="0.1">
<path opacity="0.1" d="M408.737 263.971C413.457 263.971 417.283 258.964 417.283 252.788C417.283 246.612 413.457 241.605 408.737 241.605C404.017 241.605 400.191 246.612 400.191 252.788C400.191 258.964 404.017 263.971 408.737 263.971Z" fill="#3F3D56"/>
<path opacity="0.1" d="M415.419 204.638C416.662 202.541 417.206 200.211 417.206 197.726C417.206 191.591 413.321 186.543 408.66 186.543C403.998 186.543 400.114 191.668 400.114 197.726C400.114 200.211 400.657 202.463 401.9 204.638C399.414 208.909 399.414 214.19 401.9 218.384C399.414 222.655 399.414 227.936 401.9 232.13C400.657 234.227 400.114 236.557 400.114 239.042C400.114 245.177 403.998 250.225 408.66 250.225C413.321 250.225 417.206 245.099 417.206 239.042C417.206 236.557 416.662 234.305 415.419 232.13C417.905 227.859 417.905 222.578 415.419 218.384C417.827 214.19 417.827 209.065 415.419 204.638Z" fill="#3F3D56"/>
<path opacity="0.1" d="M408.737 195.319C413.457 195.319 417.283 190.312 417.283 184.135C417.283 177.959 413.457 172.952 408.737 172.952C404.017 172.952 400.191 177.959 400.191 184.135C400.191 190.312 404.017 195.319 408.737 195.319Z" fill="#3F3D56"/>
<path opacity="0.1" d="M408.737 181.572C413.457 181.572 417.283 176.566 417.283 170.389C417.283 164.213 413.457 159.206 408.737 159.206C404.017 159.206 400.191 164.213 400.191 170.389C400.191 176.566 404.017 181.572 408.737 181.572Z" fill="#3F3D56"/>
<path opacity="0.1" d="M376.495 76.4189C375.252 74.9433 374.242 73.3901 373.31 71.6815L395.841 67.8761L371.368 68.1868C366.628 57.9354 366.24 46.0532 370.513 35.5689L403.221 52.4991L373.077 30.288C384.42 10.562 409.67 3.80542 429.326 15.144C449.059 26.4049 455.819 51.6449 444.553 71.3709C443.543 73.0794 442.456 74.6326 441.29 76.2635C443.077 78.5934 444.709 81.0786 446.03 83.719L416.74 99.0183L447.972 88.534C452.4 101.659 449.836 116.104 441.29 127.132C455.353 144.994 452.323 170.855 434.376 184.912C416.507 198.969 390.635 195.94 376.573 178C364.764 163.011 364.764 142.12 376.573 127.132C364.919 112.376 364.919 91.4075 376.495 76.4189Z" fill="#6C63FF"/>
<path opacity="0.1" d="M449.992 101.892C449.992 111.056 446.884 120.065 441.213 127.365C455.275 145.227 452.245 171.088 434.298 185.145C416.429 199.202 390.557 196.173 376.495 178.233C364.686 163.244 364.686 142.353 376.495 127.365C370.979 120.22 449.992 97.2321 449.992 101.892Z" fill="black"/>
</g>
<path opacity="0.1" d="M608.716 49.4703C605.065 48.8491 601.336 49.1597 597.995 50.7129C593.877 52.4991 589.216 52.4991 585.176 50.7129C580.359 48.6161 574.843 48.7714 570.026 51.0236C568.705 51.6449 567.229 52.1885 565.675 52.1885C559.537 52.1885 554.488 46.0532 553.322 37.8988C554.565 36.9669 555.575 35.9573 556.352 34.637C560.004 28.8901 565.52 25.0847 571.813 25.0847C578.028 25.0847 583.467 28.7347 587.196 34.4817C589.449 37.9765 593.256 40.151 597.373 40.0733H597.529C602.501 39.7627 606.774 43.7234 608.716 49.4703Z" fill="#6C63FF"/>
<path opacity="0.1" d="M626.43 26.7932L616.563 33.0061L622.623 22.0558C620.914 20.7356 618.739 19.959 616.719 19.959H616.563C615.942 19.959 615.243 19.959 614.621 19.8813L611.203 21.9782L612.601 19.3377C610.115 18.4834 608.173 16.8525 606.774 14.911L600.714 18.7941L604.599 11.8822C601.103 7.61081 596.286 5.12564 591.236 5.12564C585.02 5.12564 579.427 8.93105 575.775 14.678C573.677 18.1728 569.715 20.3473 565.597 20.1143H565.287C558.372 20.1143 552.778 28.0358 552.778 37.5105C552.778 47.2181 558.372 54.9066 565.287 54.9066C566.763 54.9066 568.317 54.5183 569.637 53.7417C574.377 51.4119 579.893 51.2565 584.787 53.4311C588.905 55.2173 593.567 55.2173 597.607 53.4311C602.423 51.3342 607.862 51.4895 612.679 53.7417C614 54.363 615.476 54.9066 617.03 54.9066C623.944 54.9066 629.538 46.9852 629.538 37.5105C629.072 33.7827 628.217 30.1326 626.43 26.7932Z" fill="#6C63FF"/>
<path opacity="0.1" d="M185.528 47.2182C182.965 46.7522 180.323 47.0628 178.07 48.0724C175.273 49.3927 171.932 49.3927 169.135 48.0724C165.717 46.5969 161.91 46.6745 158.569 48.2278C157.637 48.6937 156.627 48.8491 155.539 49.082C151.266 49.082 147.615 44.733 146.993 39.0637C147.848 38.5201 148.625 37.6658 149.091 36.7339C151.655 32.6955 155.617 30.055 159.968 30.055C164.318 30.055 168.203 32.6955 170.689 36.6562C172.165 39.1414 174.962 40.6169 177.837 40.6169H177.915C181.1 40.384 184.052 43.1798 185.528 47.2182Z" fill="#6C63FF"/>
<path opacity="0.1" d="M198.503 31.2976L191.511 35.7243L195.784 28.1134C194.541 27.1815 193.142 26.6379 191.666 26.6379H191.588C191.122 26.6379 190.578 26.6379 190.19 26.5602L187.859 28.0358L188.869 26.2496C187.16 25.7059 185.761 24.541 184.751 23.1431L180.478 25.7836L183.12 20.8133C180.867 17.8621 177.371 16.2313 173.719 16.0759C169.368 16.0759 165.406 18.7164 162.842 22.7548C161.366 25.24 158.569 26.7155 155.695 26.6379H155.539C150.722 26.6379 146.76 32.0742 146.76 38.9084C146.76 45.7426 150.722 51.1789 155.539 51.1789C156.549 51.1789 157.637 50.8683 158.569 50.3246C161.832 48.6937 165.717 48.6161 169.135 50.1693C170.534 50.7129 172.088 51.1789 173.642 51.1789C175.118 51.1789 176.671 50.8682 178.07 50.247C181.333 48.849 185.218 48.8491 188.558 50.4023C189.491 50.8682 190.501 51.0236 191.588 51.0236C196.405 51.0236 200.368 45.5873 200.368 38.7531C200.445 36.1902 199.668 33.5497 198.503 31.2976Z" fill="#6C63FF"/>
<path opacity="0.1" d="M62.6974 104.61C65.2612 104.144 67.9028 104.455 70.1558 105.464C72.9527 106.784 76.2935 106.784 79.0904 105.464C82.5088 103.989 86.3157 104.066 89.6565 105.62C90.5888 106.086 91.5988 106.474 92.6865 106.474C96.9595 106.474 100.611 102.125 101.233 96.4555C100.378 95.9119 99.6011 95.0576 99.1349 94.1257C96.5711 90.0873 92.6088 87.4468 88.258 87.4468C83.9073 87.4468 80.0227 90.0096 77.5366 94.048C76.0604 96.5332 73.2635 98.0087 70.3889 98.0087H70.3112C67.0481 97.8534 64.0958 100.572 62.6974 104.61Z" fill="#6C63FF"/>
<path opacity="0.1" d="M49.6451 86.7478L56.6374 91.1745L52.3644 83.5637C53.6074 82.6318 55.0059 82.0881 56.6374 82.0881H56.7151C57.1813 82.0881 57.7251 82.0881 58.1136 82.0105L60.4443 83.4861L59.4343 81.6998C61.0659 81.1562 62.542 79.9913 63.552 78.5934L67.8251 81.2339L65.1835 76.4189C67.4366 73.4677 70.9327 71.8368 74.5842 71.6815C78.935 71.6815 82.8973 74.322 85.4611 78.3604C86.9373 80.8456 89.7342 82.3211 92.6088 82.2435H92.7642C97.5811 82.2435 101.543 87.6798 101.543 94.514C101.543 101.348 97.5811 106.784 92.7642 106.784C91.7542 106.784 90.6665 106.474 89.7342 105.93C86.4711 104.299 82.5865 104.222 79.1681 105.775C77.7696 106.319 76.2158 106.784 74.6619 106.784C73.1858 106.784 71.632 106.474 70.2335 105.853C66.9704 104.455 63.0858 104.455 59.7451 106.008C58.8128 106.474 57.8028 106.629 56.7151 106.629C51.8982 106.629 47.9359 101.193 47.9359 94.3587C47.7028 91.6405 48.4021 89.0777 49.6451 86.7478Z" fill="#6C63FF"/>
<path d="M461.102 414.324C463.743 409.509 460.791 403.373 457.217 399.024C453.643 394.675 449.603 390.171 449.681 384.579C449.759 376.58 458.227 371.843 465.064 367.727C470.192 364.62 474.776 360.815 478.893 356.621C480.602 354.99 482.001 353.127 483.166 350.952C484.565 347.846 484.487 344.273 484.487 340.856C484.176 329.44 483.632 318.179 482.778 306.763" stroke="#3F3D56" stroke-width="4" stroke-miterlimit="10"/>
<path d="M495.675 306.219C495.519 301.948 493.111 298.142 489.459 296.045L486.662 301.637L486.74 294.958C480.136 293.094 473.144 296.744 471.279 303.346C469.415 309.947 473.066 316.936 479.67 318.8C486.274 320.664 493.266 317.014 495.131 310.413C495.597 309.092 495.675 307.617 495.675 306.219Z" fill="#6C63FF"/>
<path d="M473.455 390.249C470.347 396.306 462.889 398.714 456.673 395.607C452.711 393.666 450.147 389.705 449.914 385.278C449.836 383.57 450.069 381.861 450.769 380.153C453.333 373.862 460.48 370.523 466.851 373.085C470.036 374.406 472.678 377.046 473.921 380.23L466.229 386.521L474.776 384.579C474.776 386.676 474.387 388.54 473.455 390.249Z" fill="#6C63FF"/>
<path d="M467.317 366.174C460.403 366.484 454.576 361.281 454.343 354.369C454.032 348.622 457.839 343.341 463.355 341.866L463.277 347.069L466.074 341.477C472.989 341.167 478.816 346.37 479.049 353.282C479.359 360.116 474.232 365.863 467.317 366.174Z" fill="#6C63FF"/>
<path d="M497.462 346.215C490.547 346.603 484.72 341.322 484.487 334.41C484.099 327.498 489.382 321.674 496.296 321.441C498.627 321.363 501.035 321.829 503.055 323.072L500.802 329.129L505.231 324.702C510.359 329.284 510.592 337.206 506.085 342.254C503.91 344.584 500.725 345.982 497.462 346.215Z" fill="#6C63FF"/>
<path opacity="0.1" d="M494.043 309.558C491.246 309.869 488.372 310.801 485.497 310.956C482.545 311.112 479.437 310.49 477.572 308.238C476.718 306.918 475.941 305.598 475.242 304.2C474.387 302.957 473.455 301.948 472.134 301.249C469.026 307.384 471.512 314.917 477.572 318.024C483.71 321.13 491.246 318.645 494.354 312.587C494.82 311.578 495.208 310.646 495.519 309.558C494.82 309.403 494.509 309.558 494.043 309.558Z" fill="black"/>
<path opacity="0.1" d="M497.462 346.215C490.547 346.525 484.72 341.322 484.487 334.41C484.409 332.469 484.798 330.372 485.73 328.586C486.74 329.207 487.517 330.061 488.294 331.148C488.915 332.546 489.925 333.944 490.78 335.264C492.645 337.517 496.063 338.293 499.093 338.06C502.123 337.827 504.92 337.051 507.95 336.818C508.338 336.818 508.805 336.74 509.193 336.74C507.795 341.943 503.055 345.904 497.462 346.215Z" fill="black"/>
<path opacity="0.1" d="M467.317 366.174C460.403 366.484 454.576 361.281 454.343 354.369C454.265 352.505 454.653 350.486 455.508 348.7C456.518 349.321 457.373 350.175 458.149 351.263C459.004 352.661 459.859 354.058 460.869 355.534C462.966 357.864 466.54 358.64 469.648 358.563C472.756 358.485 475.708 357.709 478.66 357.553C477.106 362.446 472.6 365.941 467.317 366.174Z" fill="black"/>
<path opacity="0.1" d="M473.455 390.249C470.347 396.306 462.889 398.714 456.673 395.607C452.711 393.666 450.147 389.705 449.914 385.278C449.836 383.57 450.069 381.861 450.769 380.153C451.779 380.774 452.633 381.628 453.488 382.638C454.731 384.036 455.353 385.667 456.751 387.065C459.315 389.627 463.432 390.559 467.006 390.715C469.182 390.637 471.357 390.559 473.455 390.249Z" fill="black"/>
<path d="M255.451 258.457C252.81 253.642 255.762 247.507 259.336 243.158C262.91 238.809 266.872 234.305 266.872 228.713C266.794 220.714 258.326 215.976 251.489 211.86C246.361 208.754 241.855 204.949 237.737 200.755C236.028 199.124 234.63 197.26 233.464 195.086C232.066 191.979 232.144 188.407 232.144 184.99C232.454 173.573 233.076 162.312 233.853 150.896" stroke="#3F3D56" stroke-width="4" stroke-miterlimit="10"/>
<path d="M220.956 150.508C221.111 146.237 223.52 142.431 227.094 140.334L229.89 145.926L229.813 139.247C231.134 138.859 232.532 138.781 233.853 138.781C240.767 139.092 245.973 144.916 245.662 151.75C245.351 158.662 239.524 163.866 232.687 163.555C225.928 163.089 220.645 157.264 220.956 150.508Z" fill="#6C63FF"/>
<path d="M243.098 234.538C246.206 240.595 253.664 243.003 259.88 239.896C265.94 236.79 268.348 229.334 265.24 223.121C262.133 217.064 254.674 214.656 248.459 217.763C245.74 219.161 243.642 221.646 242.554 224.519L250.246 230.81L241.7 228.868C241.777 230.887 242.166 232.751 243.098 234.538Z" fill="#6C63FF"/>
<path d="M249.236 210.54C256.15 210.851 261.977 205.647 262.21 198.736C262.521 192.989 258.792 187.708 253.198 186.232L253.276 191.435L250.479 185.844C243.564 185.533 237.737 190.736 237.504 197.648C237.427 199.046 237.582 200.444 237.97 201.92C239.524 206.657 244.03 210.152 249.236 210.54Z" fill="#6C63FF"/>
<path d="M219.091 190.348C226.006 190.659 231.833 185.455 232.066 178.544C232.299 171.632 227.171 165.807 220.257 165.574C217.926 165.496 215.517 165.962 213.498 167.205L215.751 173.263L211.244 168.914C208.758 171.166 207.282 174.195 207.204 177.456C207.127 178.621 207.204 179.786 207.515 180.873C208.914 186.232 213.575 190.038 219.091 190.348Z" fill="#6C63FF"/>
<path opacity="0.1" d="M222.743 153.77C225.54 154.08 228.414 155.012 231.289 155.168C234.241 155.323 237.349 154.702 239.214 152.449C240.068 151.129 240.845 149.809 241.544 148.411C242.399 147.168 243.331 146.159 244.652 145.46C247.76 151.595 245.274 159.128 239.214 162.235C233.076 165.341 225.54 162.856 222.432 156.798C221.966 155.789 221.5 154.857 221.267 153.77C221.733 153.614 222.199 153.77 222.743 153.77Z" fill="black"/>
<path opacity="0.1" d="M219.091 190.348C226.006 190.659 231.833 185.455 232.066 178.544C232.144 176.602 231.755 174.505 230.823 172.719C229.813 173.34 229.036 174.195 228.259 175.282C227.637 176.68 226.627 178.078 225.773 179.398C223.908 181.65 220.49 182.427 217.46 182.349C214.43 182.271 211.633 181.339 208.603 181.106C208.214 181.106 207.748 181.029 207.36 181.029C208.914 186.077 213.575 190.038 219.091 190.348Z" fill="black"/>
<path opacity="0.1" d="M249.236 210.54C256.15 210.851 261.977 205.647 262.21 198.736C262.288 196.872 261.9 194.775 261.045 193.066C260.035 193.688 259.18 194.542 258.403 195.629C257.549 197.027 256.694 198.425 255.684 199.745C253.587 202.075 250.013 202.852 246.905 202.774C243.797 202.696 240.845 201.92 237.893 201.764C239.524 206.735 244.03 210.152 249.236 210.54Z" fill="black"/>
<path opacity="0.1" d="M243.098 234.538C246.206 240.595 253.82 243.003 259.88 239.896C265.473 236.945 267.96 230.344 265.784 224.442C264.774 225.063 263.92 225.917 263.065 226.927C261.822 228.325 261.123 229.955 259.802 231.353C257.238 233.916 253.12 234.848 249.547 235.003C247.371 234.926 245.196 234.848 243.098 234.538Z" fill="black"/>
<path d="M577.64 260.787C633.377 260.787 678.562 215.621 678.562 159.905C678.562 104.189 633.377 59.0227 577.64 59.0227C521.902 59.0227 476.718 104.189 476.718 159.905C476.718 215.621 521.902 260.787 577.64 260.787Z" fill="#3F3D56"/>
<path d="M620.992 185.921C617.496 182.427 609.105 177.146 604.909 175.049C600.093 172.719 598.306 172.719 594.887 175.204C592.09 177.146 590.148 179.165 586.885 178.388C583.7 177.767 577.096 172.797 570.88 166.584C564.665 160.371 559.77 153.847 559.071 150.586C558.45 147.324 560.314 145.382 562.257 142.586C564.743 139.169 564.821 137.383 562.412 132.568C560.47 128.452 555.187 119.909 551.535 116.492C548.039 112.997 547.184 113.774 545.32 114.551C543.378 115.405 541.358 116.337 539.571 117.579C536.074 119.909 534.132 121.928 532.656 124.802C531.258 127.753 529.704 133.189 537.784 147.479C543.688 158.507 551.147 168.525 560.159 177.223C568.938 186.077 579.038 193.688 590.07 199.59C604.366 207.667 609.882 206.113 612.756 204.716C615.709 203.318 617.651 201.454 619.982 197.804C621.225 196.017 622.235 193.998 623.012 192.057C623.789 190.193 624.643 189.416 620.992 185.921Z" fill="#6C63FF"/>
<path opacity="0.1" d="M577.64 59.0227C521.935 59.0227 476.718 104.144 476.718 159.905C476.718 215.588 521.857 260.787 577.562 260.787C633.267 260.787 678.484 215.666 678.484 159.905V159.827C678.639 104.222 633.423 59.1004 577.64 59.0227ZM577.64 247.274C529.315 247.274 490.081 208.055 490.081 159.75C490.081 111.444 529.238 72.2251 577.64 72.2251C626.042 72.2251 665.199 111.444 665.199 159.75C665.199 208.133 626.042 247.429 577.64 247.274Z" fill="black"/>
<path d="M345.807 414.013C401.545 414.013 446.729 368.847 446.729 313.131C446.729 257.415 401.545 212.249 345.807 212.249C290.069 212.249 244.885 257.415 244.885 313.131C244.885 368.847 290.069 414.013 345.807 414.013Z" fill="#3F3D56"/>
<path d="M403.221 282.61L373.077 313.442C372.921 313.597 372.921 313.908 373.077 314.296L394.287 336.818C395.685 338.216 395.685 340.623 394.287 342.021C393.665 342.642 392.655 343.031 391.723 343.186C390.713 343.186 389.858 342.798 389.081 342.021L367.949 319.499C367.794 319.344 367.405 319.344 367.094 319.499L361.889 324.702C357.616 329.052 351.789 331.459 345.807 331.459C339.669 331.459 333.687 328.896 329.336 324.469L324.442 319.344C324.286 319.189 323.898 319.189 323.587 319.344L302.532 341.788C301.134 343.186 298.726 343.186 297.327 341.788C295.929 340.39 295.929 337.983 297.327 336.585L318.459 314.063C318.615 313.908 318.615 313.519 318.459 313.209L288.315 282.377C288.159 282.222 287.771 282.222 287.46 282.377C287.383 282.455 287.305 282.532 287.305 282.765V344.196C287.305 349.088 291.345 353.127 296.239 353.127H395.219C400.114 353.127 404.154 349.088 404.154 344.196V282.765C404.154 282.455 403.998 282.222 403.687 282.222C403.532 282.377 403.299 282.455 403.221 282.61Z" fill="#6C63FF"/>
<path d="M345.807 324.159C349.925 324.159 353.887 322.528 356.839 319.654L400.891 274.844C399.414 273.524 397.394 272.902 395.297 272.902H296.55C294.608 272.902 292.51 273.524 290.956 274.844L335.008 319.654C337.805 322.45 341.689 324.159 345.807 324.159Z" fill="#6C63FF"/>
<path opacity="0.1" d="M344.486 212.326C288.781 212.326 243.564 257.448 243.564 313.209C243.564 368.892 288.703 414.091 344.408 414.091C400.114 414.091 445.33 368.969 445.33 313.209V313.131C445.486 257.448 400.347 212.326 344.486 212.326ZM344.486 400.578C296.162 400.578 256.927 361.359 256.927 313.053C256.927 264.748 296.162 225.529 344.486 225.529C392.811 225.529 432.045 264.748 432.045 313.053C432.045 361.436 392.888 400.578 344.486 400.578Z" fill="black"/>
<path d="M106.438 338.682C162.176 338.682 207.36 293.515 207.36 237.799C207.36 182.084 162.176 136.917 106.438 136.917C50.7004 136.917 5.51611 182.084 5.51611 237.799C5.51611 293.515 50.7004 338.682 106.438 338.682Z" fill="#3F3D56"/>
<path d="M106.438 189.494L66.1935 282.299L70.0004 286.105L106.438 270.106L142.875 286.105L146.682 282.299L106.438 189.494Z" fill="#6C63FF"/>
<path opacity="0.1" d="M106.438 136.917C50.7328 136.917 5.51611 182.038 5.43842 237.722C5.43842 293.405 50.5774 338.604 106.283 338.682C161.988 338.682 207.204 293.56 207.282 237.877C207.282 237.877 207.282 237.877 207.282 237.799C207.282 182.116 162.143 136.917 106.438 136.917ZM106.438 325.168C58.1136 325.168 18.8791 285.949 18.8791 237.644C18.8791 189.339 58.1136 150.12 106.438 150.12C154.762 150.12 193.997 189.339 193.997 237.644C193.841 286.105 154.685 325.168 106.438 325.168Z" fill="black"/>
<path d="M592.401 309.481C591.469 307.229 590.614 305.054 589.604 302.802C588.75 300.705 587.74 298.686 586.186 296.9C585.642 296.356 584.943 295.735 584.243 295.424C583.389 295.113 582.534 294.958 581.602 294.958C580.203 294.803 578.883 294.803 577.484 294.88C577.018 294.725 576.319 294.492 575.775 294.337C581.913 292.706 586.263 287.27 586.497 281.057C586.497 280.901 586.497 280.668 586.497 280.513C586.497 272.514 580.204 266.068 572.201 266.068C569.56 266.068 566.918 266.689 564.665 268.165C558.527 266.767 552.234 269.796 549.515 275.387C546.252 278.572 544.232 283.076 544.31 287.813C544.31 287.969 544.31 288.202 544.31 288.357C544.621 296.278 549.671 302.491 555.964 303.035C555.342 303.346 554.643 303.656 554.177 304.277C552.312 306.141 551.846 309.092 551.613 311.811L551.458 313.752L548.039 314.995C547.728 315.072 547.573 315.461 547.651 315.849C547.651 315.927 547.728 316.004 547.806 316.16L550.991 318.49C550.991 318.645 550.991 318.878 550.991 319.033C550.991 319.188 550.991 319.421 551.069 319.654C550.603 320.12 550.059 320.819 549.826 321.441C549.515 322.45 549.438 323.693 549.515 324.625L549.593 327.421C549.593 329.517 549.904 331.692 550.448 333.634C550.836 334.876 552.701 337.905 553.944 337.905C552.701 343.497 552.467 355.146 552.467 355.146C552.312 355.301 552.778 355.456 553.478 355.534C554.099 361.126 556.585 376.736 560.703 383.647C561.324 385.9 561.946 388.152 562.334 390.559C562.334 390.559 563.577 405.315 565.131 409.897C566.452 413.702 567.617 422.866 567.851 425.662C567.307 425.74 566.841 426.206 566.685 426.827C565.831 429.312 560.781 432.885 560.781 432.885C559.149 433.739 557.673 434.593 556.352 435.681C554.721 437.156 554.876 438.476 562.024 437.545C576.008 435.914 578.417 431.487 578.417 431.487C578.417 431.487 578.261 430.866 577.95 429.778C577.562 428.303 576.94 426.827 576.164 425.429C576.008 425.274 575.775 425.507 575.62 425.973C574.61 419.449 574.221 413.004 574.687 406.48C574.687 406.48 575.076 399.568 573.056 394.908C572.667 392.346 572.667 389.705 573.056 387.375C573.91 384.191 569.87 368.504 569.87 368.504L567.54 357.01C567.851 357.398 568.006 357.864 568.084 358.33L568.161 358.485L568.239 358.796C568.239 358.873 568.317 358.951 568.394 359.106C569.87 365.63 574.221 383.415 574.221 386.055C574.221 389.239 578.184 397.238 578.184 397.238C578.184 397.238 579.815 410.441 582.534 415.722C584.632 419.682 584.787 425.507 584.477 428.07C584.477 428.07 584.01 431.332 583.156 432.186C582.612 433.04 581.99 433.894 581.68 434.826L581.602 434.982C581.602 434.982 580.359 437.467 581.213 437.778C584.243 439.02 587.507 439.408 590.847 439.02C590.847 439.02 592.479 437.079 592.479 436.224C592.479 435.758 592.401 435.215 592.323 434.826C592.013 432.963 591.469 430.011 591.469 429.934C591.78 428.613 590.459 425.119 590.459 425.119L590.07 413.935C590.692 406.402 589.915 398.636 587.273 391.414C587.273 391.414 585.331 384.191 585.642 382.25C586.03 380.386 584.787 358.951 584.787 358.951L584.71 358.64C584.632 357.165 584.632 355.612 584.787 354.136C585.176 349.321 583.544 339.38 583.156 338.837C582.845 337.672 582.69 336.585 582.612 335.575C582.69 334.721 583 332.313 583.234 329.284C587.196 329.207 591.158 328.819 594.887 328.275C595.276 328.275 595.509 328.197 595.897 327.887C596.053 327.731 596.053 327.421 596.053 327.032C596.985 320.975 594.81 315.15 592.401 309.481ZM584.399 322.295C584.787 319.499 585.254 316.626 585.72 314.606L585.797 314.762C586.652 316.859 587.196 319.033 587.662 321.052C586.652 321.596 585.564 321.984 584.399 322.295Z" fill="url(#paint0_linear)"/>
<path d="M553.633 354.68C553.633 354.68 556.119 376.037 561.169 384.424C561.791 386.676 562.412 388.851 562.801 391.181C562.801 391.181 564.044 405.781 565.597 410.208C567.229 414.634 568.394 426.439 568.394 426.439C568.394 426.439 573.988 432.73 575.93 427.682C574.687 420.925 574.299 413.935 574.687 407.179C574.687 407.179 575.076 400.422 573.056 395.685C572.667 393.122 572.667 390.559 573.056 388.152C573.91 384.968 569.871 369.513 569.871 369.513L566.763 354.058L553.633 354.68Z" fill="#BE6F72"/>
<path d="M578.494 431.642C578.494 431.642 576.008 435.991 562.257 437.545C555.109 438.399 555.031 437.079 556.585 435.681C557.984 434.516 559.382 433.739 561.014 432.885C561.014 432.885 566.219 429.39 566.918 426.983C567.773 424.497 570.414 426.594 570.414 426.594C574.377 432.496 575.154 424.963 576.008 425.74C576.863 427.06 577.407 428.458 577.795 430.011C578.261 431.021 578.494 431.642 578.494 431.642Z" fill="#FF6F61"/>
<path opacity="0.1" d="M578.494 431.642C578.494 431.642 576.008 435.991 562.257 437.544C555.109 438.399 555.031 437.078 556.585 435.681C557.751 436.302 560.004 436.69 564.587 434.826C571.191 432.108 576.008 430.555 577.873 430.011C578.261 431.021 578.494 431.642 578.494 431.642Z" fill="black"/>
<path opacity="0.1" d="M574.532 407.101C574.532 407.101 574.92 400.345 572.901 395.607C572.512 393.045 572.512 390.482 572.901 388.074C573.755 384.89 569.715 369.435 569.715 369.435L566.607 353.981L563.888 354.136L566.996 369.513C566.996 369.513 570.958 384.968 570.181 388.152C569.793 390.715 569.793 393.278 570.181 395.685C572.124 400.422 571.813 407.179 571.813 407.179C571.347 414.091 571.735 421.003 573.056 427.682C572.9 428.225 572.512 428.924 571.89 429.312C573.367 429.934 574.92 429.856 575.853 427.682C574.532 420.925 574.144 414.013 574.532 407.101Z" fill="black"/>
<path d="M571.968 267.699C569.327 267.699 566.685 268.32 564.51 269.796C558.372 268.398 552.079 271.427 549.36 277.018C546.097 280.202 544.077 284.629 544.154 289.366C544.154 297.832 549.826 304.666 556.896 304.666C562.024 304.666 566.452 301.016 568.394 295.89C569.637 296.201 570.725 296.356 571.89 296.356C579.815 296.356 586.108 290.065 586.108 282.066C586.341 274.067 579.815 267.699 571.968 267.699Z" fill="#3F3D56"/>
<path d="M583.7 356.621L584.943 359.728C584.943 359.728 586.186 380.774 585.797 382.716C585.409 384.657 587.429 391.724 587.429 391.724C589.993 398.791 590.925 406.402 590.226 413.935L590.614 425.041C590.614 425.041 592.246 429.39 591.469 430.244C590.614 431.099 584.71 429.623 584.71 429.623C584.71 429.623 585.564 421.313 582.767 416.032C579.97 410.751 578.417 397.782 578.417 397.782C578.417 397.782 574.454 389.783 574.454 386.676C574.454 383.57 568.161 357.786 568.161 357.786L583.7 356.621Z" fill="#BE6F72"/>
<path d="M552.778 356.311C552.778 356.311 553.167 342.021 554.721 337.672C555.575 335.73 556.119 333.556 556.507 331.381C556.507 331.381 580.514 335.73 582.534 334.099C582.534 334.099 582.923 339.691 583.389 340.002C583.777 340.39 585.331 350.253 585.02 355.068C584.632 359.805 585.02 359.805 585.02 359.805C585.02 359.805 568.783 362.291 568.317 359.805C567.928 357.32 566.685 357.476 566.685 357.476C566.685 357.476 552.001 357.165 552.778 356.311Z" fill="#3F3D56"/>
<g opacity="0.1">
<path opacity="0.1" d="M565.83 356.311C565.83 356.311 555.808 356 552.856 355.456C552.856 355.922 552.856 356.311 552.856 356.311C552.001 357.165 566.84 357.553 566.84 357.553C566.996 357.553 567.229 357.631 567.307 357.709C566.685 356.311 565.83 356.311 565.83 356.311Z" fill="black"/>
<path opacity="0.1" d="M583.389 340.079C583 339.691 582.534 334.177 582.534 334.177C582.379 334.255 582.146 334.332 581.913 334.332C581.99 336.041 582.301 338.604 582.534 338.837C582.845 339.147 584.477 349.088 584.166 353.903C583.777 358.64 584.166 358.64 584.166 358.64C584.166 358.64 571.269 360.504 568.239 359.184C568.239 359.339 568.317 359.572 568.317 359.728C568.705 362.213 585.02 359.728 585.02 359.728C585.02 359.728 584.632 359.728 585.02 354.99C585.331 350.331 583.7 340.468 583.389 340.079Z" fill="black"/>
</g>
<path d="M570.181 292.628C570.492 293.483 571.114 294.026 571.657 294.492C572.046 294.803 572.59 294.958 573.056 295.036C572.124 295.502 571.269 295.968 570.337 296.434C568.938 297.366 567.617 298.298 566.297 299.463C564.976 300.627 563.344 301.171 561.713 301.249C562.956 299.618 563.111 297.443 562.257 295.579C561.868 295.036 561.713 294.259 561.635 293.716C561.635 292.551 562.645 291.774 563.5 291.075C564.354 290.609 564.976 290.065 565.831 289.6C566.374 289.211 567.307 288.357 568.161 288.357C569.016 288.357 569.094 288.978 569.171 289.755C569.56 290.92 569.793 291.852 570.181 292.628Z" fill="#BE6F72"/>
<path opacity="0.1" d="M570.181 292.628C570.492 293.483 571.114 294.026 571.657 294.492C572.046 294.803 572.59 294.958 573.056 295.036C572.124 295.502 571.269 295.968 570.337 296.434C568.938 297.366 567.617 298.298 566.297 299.463C564.976 300.627 563.344 301.171 561.713 301.249C562.956 299.618 563.111 297.443 562.257 295.579C561.868 295.036 561.713 294.259 561.635 293.716C561.635 292.551 562.645 291.774 563.5 291.075C564.354 290.609 564.976 290.065 565.831 289.6C566.374 289.211 567.307 288.357 568.161 288.357C569.016 288.357 569.094 288.978 569.171 289.755C569.56 290.92 569.793 291.852 570.181 292.628Z" fill="black"/>
<path d="M579.504 315.927C584.482 315.927 588.517 311.893 588.517 306.918C588.517 301.943 584.482 297.909 579.504 297.909C574.527 297.909 570.492 301.943 570.492 306.918C570.492 311.893 574.527 315.927 579.504 315.927Z" fill="#BE6F72"/>
<path d="M592.401 436.457C592.401 437.312 590.77 439.253 590.77 439.253C587.584 439.641 584.243 439.253 581.213 438.01C580.359 437.622 581.602 435.215 581.602 435.215L581.68 435.059C582.068 434.127 582.612 433.273 583.156 432.419C584.01 431.565 584.399 428.38 584.399 428.38C586.885 424.342 591.313 430.089 591.313 430.089C591.313 430.089 591.78 433.118 592.168 434.904C592.324 435.681 592.401 436.147 592.401 436.457Z" fill="#FF6F61"/>
<path opacity="0.1" d="M592.401 436.457C592.401 437.312 590.77 439.253 590.77 439.253C587.584 439.641 584.243 439.253 581.213 438.01C580.359 437.622 581.602 435.215 581.602 435.215L581.68 435.059C584.399 436.302 587.351 436.846 590.381 436.846L592.168 435.059C592.324 435.681 592.401 436.147 592.401 436.457Z" fill="black"/>
<path d="M561.247 296.744C566.138 296.744 570.104 292.78 570.104 287.891C570.104 283.001 566.138 279.037 561.247 279.037C556.355 279.037 552.39 283.001 552.39 287.891C552.39 292.78 556.355 296.744 561.247 296.744Z" fill="#BE6F72"/>
<path d="M554.099 305.753C552.234 307.539 551.768 310.568 551.535 313.286L551.224 317.247C551.147 318.412 551.147 319.344 551.147 320.431C551.147 321.052 551.302 321.751 551.302 322.373C551.302 322.994 551.38 324.003 551.38 324.702V330.527C551.302 331.77 551.457 333.012 551.924 334.022C552.468 335.187 553.788 335.653 554.954 335.187C555.497 334.721 556.119 333.944 556.197 333.323C557.207 330.993 557.828 328.508 558.139 325.945C558.217 325.013 558.217 324.236 558.294 323.305C558.372 322.373 558.45 321.518 558.683 320.586C559.227 316.781 559.538 313.131 559.848 309.403C559.926 308.238 561.014 303.967 559.46 303.501C558.838 303.346 557.207 303.967 556.663 304.122C555.731 304.588 554.954 305.054 554.099 305.753Z" fill="#BE6F72"/>
<path opacity="0.1" d="M554.099 305.753C552.234 307.539 551.768 310.568 551.535 313.286L551.224 317.247C551.147 318.412 551.147 319.344 551.147 320.431C551.147 321.052 551.302 321.751 551.302 322.373C551.302 322.994 551.38 324.003 551.38 324.702V330.527C551.302 331.77 551.457 333.012 551.924 334.022C552.468 335.187 553.788 335.653 554.954 335.187C555.497 334.721 556.119 333.944 556.197 333.323C557.207 330.993 557.828 328.508 558.139 325.945C558.217 325.013 558.217 324.236 558.294 323.305C558.372 322.373 558.45 321.518 558.683 320.586C559.227 316.781 559.538 313.131 559.848 309.403C559.926 308.238 561.014 303.967 559.46 303.501C558.838 303.346 557.207 303.967 556.663 304.122C555.731 304.588 554.954 305.054 554.099 305.753Z" fill="black"/>
<path d="M572.512 293.638C572.512 293.638 565.753 298.841 561.791 299.929C561.791 299.929 559.46 302.647 559.071 303.19C558.683 303.734 557.828 310.879 557.129 312.587C556.274 314.218 554.332 317.791 557.129 321.285C557.129 321.285 557.984 324.78 557.517 326.023C557.129 327.265 555.731 331.614 557.051 331.77C558.372 331.925 562.334 334.721 565.908 334.022C569.482 333.401 582.767 337.051 582.767 337.051C582.767 337.051 585.02 316.703 586.652 313.053L583.156 311.811C583.156 311.811 573.289 305.908 579.194 296.744C578.96 296.822 573.367 295.579 572.512 293.638Z" fill="#FF6F61"/>
<path d="M547.961 317.558L556.197 323.382C556.352 323.538 556.663 323.538 556.818 323.382L559.071 321.674C559.382 321.518 559.382 321.13 559.149 320.742C559.149 320.742 559.149 320.742 559.071 320.664L552.856 315.072C552.701 314.917 552.467 314.917 552.312 314.995L548.272 316.393C547.961 316.47 547.806 316.859 547.884 317.247C547.884 317.402 547.884 317.48 547.961 317.558Z" fill="#3F3D56"/>
<path d="M550.758 334.954C550.214 333.012 549.826 330.838 549.904 328.818L549.826 326.023C549.748 324.858 549.826 323.77 550.137 322.839C550.681 321.441 552.001 320.276 553.555 319.81C555.031 319.421 556.663 319.344 558.139 319.499C558.294 319.499 558.527 319.577 558.683 319.654C558.838 319.732 558.994 319.965 558.994 320.12C559.46 321.052 559.46 321.984 559.149 323.072C558.994 323.46 558.683 323.693 558.217 324.081C557.051 324.935 555.731 325.401 554.798 326.333C554.643 326.411 554.41 326.644 554.332 326.877C554.332 327.032 554.332 327.265 554.332 327.421C554.41 327.964 554.643 328.585 554.798 329.051C554.876 329.362 554.954 329.517 555.264 329.673C555.42 329.828 555.653 329.828 555.808 330.061C556.197 330.372 557.129 330.915 557.129 331.459C556.974 333.4 555.808 335.73 555.342 337.672C554.41 341.788 551.302 336.662 550.758 334.954Z" fill="#BE6F72"/>
<g opacity="0.1">
<path opacity="0.1" d="M563.5 334.022H563.267C564.121 334.177 564.976 334.177 565.908 334.022H566.064C565.209 333.944 564.354 333.944 563.5 334.022Z" fill="black"/>
<path opacity="0.1" d="M584.244 312.51C582.845 315.694 580.747 332.935 580.281 336.507C581.68 336.895 582.612 337.051 582.612 337.051C582.612 337.051 584.865 316.703 586.419 313.053L584.244 312.51Z" fill="black"/>
</g>
<path d="M579.815 307.306C579.893 308.161 580.359 308.782 581.136 309.248C581.99 309.869 582.767 310.723 583.467 311.578C584.477 312.976 585.254 314.529 585.797 316.082C586.652 318.024 587.196 320.198 587.662 322.295C582.534 324.625 576.785 324.547 571.58 326.1C569.249 326.644 567.151 327.887 565.52 329.595C563.888 331.304 562.956 333.711 563.267 336.196C563.267 336.274 563.267 336.507 563.344 336.585C563.5 336.74 563.733 336.895 563.966 336.895C565.287 336.895 566.607 336.507 567.773 335.575C568.783 334.721 569.715 333.866 570.57 332.779C571.036 332.158 571.813 331.537 572.512 331.304C575.464 330.372 578.572 330.449 581.524 330.372C586.03 330.294 590.537 329.983 595.12 329.207C595.664 329.284 596.286 328.818 596.363 328.275C596.363 328.197 596.363 328.12 596.363 327.964C596.752 322.062 594.577 316.16 592.324 310.723C591.391 308.471 590.537 306.297 589.527 304.122C588.672 302.025 587.662 300.006 586.108 298.298C585.564 297.754 584.865 297.133 584.166 296.822C583.234 296.511 582.379 296.356 581.447 296.356C579.97 296.201 578.494 296.201 577.018 296.278C576.863 296.9 576.63 297.754 576.63 298.608C576.707 301.326 577.951 303.889 579.116 306.297C579.271 306.84 579.582 306.84 579.815 307.306Z" fill="#BE6F72"/>
<path opacity="0.1" d="M563.655 312.277C563.034 313.519 562.645 314.839 562.645 316.16C562.645 316.626 562.723 317.325 562.801 317.791C563.344 319.189 564.51 320.353 565.986 320.819" stroke="black" stroke-miterlimit="10"/>
<path d="M568.783 279.193C568.317 279.193 567.773 279.27 567.307 279.348C565.986 277.407 562.878 275.931 559.227 275.931C554.41 275.931 550.448 278.494 550.448 281.523C550.448 284.551 554.41 287.114 559.227 287.114C561.014 287.114 562.878 286.726 564.51 285.949C565.675 288.279 568.472 289.211 570.803 288.202C573.134 287.037 574.066 284.241 573.056 281.911C572.279 280.28 570.647 279.193 568.783 279.193Z" fill="#3F3D56"/>
<path opacity="0.1" d="M569.249 287.503C567.462 287.503 565.753 286.493 564.976 284.784C563.344 285.406 561.557 285.949 559.693 285.949C554.876 285.949 550.991 283.387 550.991 280.358C550.991 280.202 550.991 279.969 550.991 279.892C550.681 280.358 550.603 281.057 550.603 281.6C550.603 284.629 554.565 287.192 559.382 287.192C561.169 287.192 563.034 286.804 564.665 286.027C565.83 288.357 568.627 289.289 570.958 288.279C572.279 287.736 573.289 286.415 573.6 284.862C572.667 286.493 571.036 287.503 569.249 287.503Z" fill="black"/>
<path opacity="0.1" d="M549.36 279.426C552.079 273.757 558.294 270.883 564.51 272.203C571.191 268.087 580.048 270.262 584.244 276.785C585.487 278.649 586.108 280.824 586.341 283.076C586.341 282.688 586.341 282.222 586.341 281.833C586.341 273.912 579.815 267.621 572.046 267.621C569.404 267.621 566.763 268.243 564.587 269.718C558.45 268.32 552.157 271.349 549.438 276.941C546.174 280.125 544.154 284.552 544.232 289.289C544.232 289.677 544.232 290.143 544.232 290.531C544.388 286.26 546.174 282.222 549.36 279.426Z" fill="black"/>
<path d="M634.899 337.672C637.54 332.857 634.588 326.722 631.014 322.373C627.44 318.024 623.478 313.519 623.478 307.928C623.556 299.928 632.024 295.269 638.861 291.075C643.989 287.969 648.495 284.163 652.612 279.969C654.322 278.339 655.72 276.475 656.885 274.3C658.284 271.194 658.206 267.621 658.206 264.204C657.895 252.788 657.352 241.527 656.497 230.111" stroke="#3F3D56" stroke-width="4" stroke-miterlimit="10"/>
<path d="M669.316 229.645C669.161 225.373 666.752 221.568 663.179 219.471L660.382 225.063L660.459 218.384C659.139 217.996 657.74 217.84 656.419 217.918C649.505 218.229 644.299 224.053 644.61 230.887C644.921 237.799 650.748 243.003 657.585 242.692C664.422 242.381 669.627 236.479 669.316 229.645Z" fill="#6C63FF"/>
<path d="M647.174 313.675C644.066 319.732 636.608 322.14 630.393 319.033C624.255 315.927 621.924 308.471 625.032 302.258C628.139 296.201 635.598 293.793 641.813 296.9C644.532 298.298 646.63 300.783 647.718 303.656L640.026 309.947L648.572 308.005C648.495 310.024 648.106 311.966 647.174 313.675Z" fill="#6C63FF"/>
<path d="M641.036 289.522C634.122 289.832 628.295 284.629 628.062 277.717C627.751 271.97 631.48 266.689 637.074 265.214L636.996 270.417L639.793 264.825C646.708 264.515 652.535 269.718 652.768 276.63C653.156 283.464 647.951 289.289 641.036 289.522Z" fill="#6C63FF"/>
<path d="M671.181 269.485C664.266 269.796 658.439 264.593 658.206 257.681C657.895 250.769 663.101 244.944 670.015 244.711C672.346 244.634 674.755 245.099 676.775 246.342L674.522 252.4L679.028 248.051C681.514 250.303 682.99 253.332 683.068 256.593C683.145 257.758 683.068 258.923 682.757 260.01C681.436 265.447 676.775 269.33 671.181 269.485Z" fill="#6C63FF"/>
<path opacity="0.1" d="M667.685 232.907C664.888 233.217 662.013 234.149 659.139 234.305C656.186 234.46 653.079 233.839 651.214 231.586C650.359 230.266 649.582 228.946 648.883 227.548C648.029 226.305 647.096 225.296 645.776 224.597C642.668 230.732 645.154 238.265 651.214 241.372C657.274 244.478 664.888 241.993 667.995 235.935C668.462 234.926 668.928 233.994 669.161 232.907C668.617 232.829 668.073 232.829 667.685 232.907Z" fill="black"/>
<path opacity="0.1" d="M671.181 269.485C664.266 269.796 658.439 264.592 658.206 257.681C658.129 255.739 658.517 253.642 659.449 251.856C660.459 252.477 661.236 253.332 662.013 254.419C662.635 255.817 663.489 257.215 664.499 258.535C666.364 260.865 669.782 261.564 672.812 261.486C675.842 261.408 678.639 260.476 681.669 260.243C682.058 260.243 682.524 260.166 682.912 260.166C681.436 265.369 676.775 269.33 671.181 269.485Z" fill="black"/>
<path opacity="0.1" d="M641.036 289.522C634.122 289.832 628.295 284.629 628.062 277.717C627.984 275.853 628.373 273.757 629.227 271.97C630.237 272.592 631.092 273.446 631.869 274.533C632.879 275.853 633.345 277.484 634.588 278.805C636.686 281.134 640.259 281.911 643.367 281.911C646.475 281.911 649.427 281.057 652.379 280.901C650.825 285.872 646.319 289.366 641.036 289.522Z" fill="black"/>
<path opacity="0.1" d="M647.174 313.674C643.989 319.732 636.297 322.062 630.315 318.878C624.876 315.927 622.313 309.481 624.488 303.578C625.498 304.2 626.353 305.054 627.207 306.064C628.45 307.462 629.149 309.092 630.47 310.49C633.034 313.053 637.152 313.985 640.726 314.14C642.901 314.063 645.076 313.985 647.174 313.674Z" fill="black"/>
<path d="M273.087 348.7C273.087 345.593 271.689 342.642 269.125 340.701C269.125 335.031 265.007 330.216 259.413 329.284C258.559 325.246 255.529 321.907 251.8 320.742C251.333 320.664 250.867 320.431 250.401 320.431H250.323H249.935H249.78H249.624H249.236H248.614C243.02 320.509 238.437 324.702 237.582 330.139C234.086 329.284 230.823 330.294 230.201 332.702C230.124 333.245 230.124 333.944 230.279 334.488C230.823 336.196 232.843 337.905 235.562 338.759L235.873 338.837L236.339 338.914H236.417C235.873 340.157 235.562 341.477 235.562 342.798C235.562 346.059 237.349 349.088 240.301 350.719L240.146 350.797C239.835 351.107 239.602 351.418 239.291 351.962C238.747 353.127 238.126 354.291 237.815 355.456C237.66 356.621 237.504 357.709 237.271 358.64C236.727 360.504 235.174 362.291 235.018 364.31C234.94 365.242 235.096 366.251 234.474 366.95C234.319 367.028 234.164 367.261 234.008 367.339C233.62 367.649 233.154 367.96 232.843 368.581C232.687 368.969 232.377 369.435 231.988 369.746C231.444 370.134 230.512 370.134 230.201 370.911C229.89 371.688 230.667 372.387 230.512 373.163C230.357 373.784 229.657 374.095 229.269 374.483C228.803 375.027 228.337 375.804 228.104 376.425C226.239 376.813 224.141 376.347 222.665 375.027C222.976 375.571 223.054 376.347 223.209 376.969C222.277 376.347 221.344 375.726 220.257 375.493C219.014 375.027 218.004 374.173 217.149 373.163L218.858 373.008L211.477 361.669L209.224 361.203L211.089 365.009C210.778 365.086 210.545 365.397 210.467 365.863C210.39 366.251 210.39 366.717 210.39 367.183C210.467 368.193 210.701 369.125 210.856 370.212L211.4 372.853C211.4 373.008 211.477 373.318 211.555 373.474C210.934 373.474 210.079 373.474 209.302 373.629C207.826 373.163 206.272 372.697 204.796 372.464C204.485 372.387 204.174 372.387 203.786 372.464C203.398 372.62 203.164 372.853 202.776 373.319C201.455 374.794 200.29 376.347 199.358 378.056C195.318 385.045 190.035 390.948 185.14 397.238C181.721 398.636 178.225 399.956 174.807 401.277L167.348 404.072C165.95 404.694 164.318 405.082 162.765 405.082C162.143 405.082 161.133 404.927 160.822 405.548C160.667 405.859 160.512 406.092 160.356 406.558L159.502 406.635C159.191 405.393 158.492 404.305 157.715 403.373C157.326 403.451 157.093 403.684 156.86 403.917C156.705 404.228 156.549 404.538 156.394 404.927C156.005 405.47 155.228 405.859 154.762 406.247C154.296 406.635 153.908 407.49 153.442 408.033C152.82 408.499 151.81 408.965 150.878 409.043C149.479 409.353 148.159 409.897 146.915 410.518C146.449 410.829 145.983 410.984 145.439 411.14C144.895 411.217 144.274 411.217 143.73 411.217L139.768 410.907C139.379 410.907 139.146 410.907 138.758 410.907C137.903 411.217 137.437 412.072 137.515 412.848C137.592 413.78 137.981 414.479 138.758 415.1C139.379 415.566 140.156 416.032 141.011 416.343C144.429 417.663 148.003 418.673 151.499 419.449V420.304C154.063 421.624 156.782 422.168 159.579 422.168C159.735 422.168 159.968 422.168 160.123 422.09C160.434 421.935 160.512 421.624 160.589 421.236C161.444 418.673 161.988 416.032 162.221 413.547C162.687 413.547 163.231 413.392 163.619 413.159C164.94 412.77 166.338 413.625 167.737 413.78C169.446 413.935 171 412.926 172.631 412.382L173.253 412.227C172.787 412.77 172.243 413.392 171.622 413.702C171 414.168 170.223 414.557 169.524 415.023C168.98 415.489 168.358 416.032 167.737 416.421C167.348 416.576 166.805 416.809 166.338 416.887C165.717 417.197 165.018 417.43 164.474 417.896C164.008 418.207 163.464 418.75 163.153 419.216C162.842 419.682 162.765 420.459 163.075 421.003C163.386 421.469 163.93 421.857 164.396 421.935C164.862 422.012 165.562 422.012 166.028 421.935C168.125 421.779 170.301 421.624 172.321 421.469C173.253 421.391 174.108 421.313 174.962 421.08C175.428 421.003 175.895 420.77 176.361 420.692C177.215 420.537 177.992 420.381 178.847 420.304C179.002 420.304 179.313 420.304 179.468 420.381C179.935 420.537 180.323 421.003 180.789 421.236C181.1 421.236 181.411 421.236 181.799 421.158C183.275 420.847 184.907 420.692 186.538 420.692C187.16 420.692 188.015 420.537 188.325 419.838C188.636 419.294 188.015 418.129 187.859 417.275C187.781 416.809 187.704 416.11 187.704 415.566C187.626 414.168 187.238 412.848 186.461 411.606C186.15 411.062 185.917 410.363 185.528 409.819C188.558 408.654 191.433 407.179 194.23 405.393C195.706 404.228 197.415 403.529 199.124 402.907C201.222 402.752 203.398 402.907 205.34 403.529C210.157 404.927 214.974 406.558 219.635 408.421C221.888 409.353 224.064 410.285 226.394 411.062C227.016 411.994 227.87 412.77 228.88 413.392C230.512 414.324 232.144 414.79 234.086 414.79C236.572 414.945 238.903 415.1 241.311 415.1C243.176 415.178 245.118 414.79 246.75 414.091C247.138 413.935 247.604 413.625 247.915 413.236C249.236 413.314 250.557 412.848 251.567 411.916C252.887 410.751 253.897 409.276 254.286 407.567C254.83 405.237 254.363 402.442 255.762 400.655C256.15 400.189 256.694 399.723 257.005 399.257C257.393 398.636 257.627 397.782 257.549 396.928C257.549 396.928 257.549 396.85 257.627 396.85C257.937 396.229 258.093 395.374 258.17 394.52C258.326 393.976 258.559 393.277 258.792 392.734C259.413 390.948 260.113 389.084 260.657 387.298C261.045 386.055 261.2 384.735 261.589 383.492C261.744 382.483 261.744 381.551 261.9 380.463C261.977 378.832 262.288 377.357 262.832 375.881C264.153 372.231 264.774 368.504 264.93 364.698V364.543C268.814 364.154 271.689 360.737 271.611 356.932C271.611 355.767 271.456 354.68 270.99 353.748C272.699 352.195 273.087 350.408 273.087 348.7ZM236.96 392.656C237.038 393.045 237.116 393.51 237.349 393.899C236.805 393.355 236.106 392.656 235.562 392.19C235.717 392.268 236.028 392.346 236.184 392.346C236.494 392.346 236.805 392.423 236.96 392.656ZM234.164 390.559C230.667 387.531 226.627 385.201 223.054 382.25C224.918 383.259 226.938 384.346 228.803 385.356C231.056 386.676 233.231 387.919 235.562 389.006C235.096 389.705 234.63 390.171 234.164 390.559ZM235.64 383.026L235.795 382.871C235.795 383.259 235.795 383.725 235.795 384.113L234.863 383.803C235.096 383.492 235.407 383.182 235.64 383.026ZM204.874 391.181C206.272 389.55 207.593 387.764 208.681 385.9C210.079 388.385 212.332 390.016 214.274 392.035C211.089 391.647 207.981 391.336 204.874 391.181Z" fill="url(#paint1_linear)"/>
<path d="M209.924 361.747L212.021 362.213L219.557 373.319L216.217 373.707L209.924 361.747Z" fill="#2F2E41"/>
<path d="M156.472 406.791C157.015 408.654 157.792 410.674 158.725 412.537C161.288 412.071 163.619 411.295 165.95 410.441C165.484 409.819 164.94 409.043 164.474 408.499C163.93 407.955 163.153 407.257 162.532 406.868C161.677 406.713 160.822 406.713 159.968 406.868C158.88 406.791 157.637 406.791 156.472 406.791Z" fill="#FBBEBE"/>
<path d="M162.454 409.742C161.211 409.276 160.356 408.111 159.89 406.946C159.502 405.703 158.88 404.461 158.025 403.529C157.637 403.606 157.404 403.839 157.171 404.072C157.015 404.383 156.86 404.694 156.705 405.082C156.316 405.626 155.539 405.936 155.073 406.402C154.607 406.868 154.219 407.645 153.752 408.111C153.131 408.577 152.121 409.043 151.189 409.12C149.79 409.431 148.469 409.975 147.149 410.596C146.682 410.907 146.139 411.062 145.672 411.217C145.129 411.295 144.507 411.295 143.963 411.217L140.001 410.907C139.69 410.829 139.379 410.829 138.991 410.907C138.136 411.217 137.67 412.072 137.748 412.848C137.826 413.78 138.214 414.479 138.991 414.945C139.612 415.411 140.389 415.877 141.244 416.11C144.662 417.43 148.314 418.44 151.966 419.139V419.993C154.529 421.236 157.326 421.857 160.045 421.857C160.201 421.857 160.434 421.857 160.589 421.779C160.9 421.624 160.978 421.313 161.055 420.925C161.988 418.129 162.532 415.256 162.687 412.227C162.765 411.606 162.687 410.751 162.532 409.975C162.376 409.586 163.075 409.897 162.454 409.742Z" fill="#2F2E41"/>
<path d="M238.67 394.675C226.861 395.297 215.284 391.957 203.398 391.569C201.921 391.491 200.445 391.569 199.047 391.88C197.571 392.268 196.094 392.889 194.696 393.588C188.403 396.539 181.799 398.947 175.273 401.51L167.737 404.305C166.338 404.927 164.707 405.315 163.153 405.315C162.532 405.315 161.522 405.16 161.211 405.703C159.968 407.489 160.667 410.13 161.366 412.304C161.677 412.926 161.988 413.702 162.765 413.702C163.231 413.702 163.775 413.547 164.163 413.314C165.562 412.926 166.882 413.78 168.281 413.935C169.99 414.091 171.544 413.081 173.408 412.537C176.128 411.528 179.08 411.528 181.955 411.14C186.771 410.285 191.278 408.111 195.318 405.548C196.794 404.383 198.503 403.684 200.445 403.218C202.543 403.063 204.718 403.218 206.661 403.839C211.477 405.237 216.372 406.868 221.111 408.732C223.597 409.897 226.006 410.674 228.647 411.45C234.241 412.848 240.146 412.615 245.507 410.441C247.371 409.819 249.469 408.499 249.547 406.325C249.624 405.082 248.692 404.072 248.148 403.14C247.76 402.597 247.293 401.82 246.905 401.277C244.73 398.481 242.244 394.52 238.67 394.675Z" fill="#2F2E41"/>
<path opacity="0.1" d="M238.67 394.675C226.861 395.297 215.284 391.957 203.398 391.569C201.921 391.491 200.445 391.569 199.047 391.88C197.571 392.268 196.094 392.889 194.696 393.588C188.403 396.539 181.799 398.947 175.273 401.51L167.737 404.305C166.338 404.927 164.707 405.315 163.153 405.315C162.532 405.315 161.522 405.16 161.211 405.703C159.968 407.489 160.667 410.13 161.366 412.304C161.677 412.926 161.988 413.702 162.765 413.702C163.231 413.702 163.775 413.547 164.163 413.314C165.562 412.926 166.882 413.78 168.281 413.935C169.99 414.091 171.544 413.081 173.408 412.537C176.128 411.528 179.08 411.528 181.955 411.14C186.771 410.285 191.278 408.111 195.318 405.548C196.794 404.383 198.503 403.684 200.445 403.218C202.543 403.063 204.718 403.218 206.661 403.839C211.477 405.237 216.372 406.868 221.111 408.732C223.597 409.897 226.006 410.674 228.647 411.45C234.241 412.848 240.146 412.615 245.507 410.441C247.371 409.819 249.469 408.499 249.547 406.325C249.624 405.082 248.692 404.072 248.148 403.14C247.76 402.597 247.293 401.82 246.905 401.277C244.73 398.481 242.244 394.52 238.67 394.675Z" fill="black"/>
<path d="M179.08 407.334C180.867 407.878 182.887 408.577 184.674 409.043C185.684 407.334 187.704 406.092 188.092 404.15C188.092 404.072 188.092 403.995 188.092 403.839C188.092 403.762 188.015 403.762 187.937 403.684C186.616 403.063 185.14 402.442 183.586 402.364C182.343 402.286 181.799 403.606 181.255 404.461C181.022 404.849 179.624 407.49 179.08 407.334Z" fill="#FBBEBE"/>
<path d="M181.721 406.092C180.556 405.936 179.624 405.237 179.002 404.305C178.847 403.839 178.536 403.14 177.992 403.296C177.526 403.373 177.371 403.839 177.138 404.461C176.827 406.247 176.205 407.955 175.662 409.742C175.04 411.45 173.875 412.926 172.476 414.013C171.855 414.479 171.078 414.867 170.378 415.333C169.835 415.799 169.213 416.265 168.592 416.654C168.203 416.809 167.659 417.042 167.193 417.119C166.572 417.43 165.872 417.663 165.328 418.129C164.862 418.44 164.318 418.75 164.008 419.449C163.697 419.915 163.619 420.692 163.93 421.236C164.241 421.702 164.785 422.09 165.251 422.167C165.717 422.245 166.416 422.245 166.882 422.167C168.98 422.012 171.233 421.857 173.408 421.702C174.341 421.624 175.195 421.546 176.128 421.313L177.526 420.925C178.381 420.77 179.158 420.614 180.012 420.537C180.168 420.537 180.478 420.537 180.634 420.614C181.1 420.77 181.488 421.236 182.032 421.469C182.343 421.469 182.654 421.469 183.042 421.391C184.674 421.08 186.15 420.925 187.781 420.925C188.403 420.925 189.258 420.77 189.568 420.071C189.957 419.216 189.258 418.362 189.102 417.508C189.025 417.042 188.947 416.343 188.947 415.877C188.869 414.479 188.481 413.159 187.704 411.916C187.238 410.907 186.383 409.819 186.771 408.732C186.927 408.421 187.082 408.111 187.16 407.567C186.694 405.703 182.731 406.325 181.721 406.092Z" fill="#2F2E41"/>
<path d="M220.956 375.881C218.858 374.949 217.149 373.241 216.217 371.299C216.061 370.911 215.828 370.367 215.751 369.979C215.207 368.503 214.119 367.183 212.954 366.018C212.643 365.708 212.41 365.63 211.944 365.63C211.555 365.708 211.322 366.018 211.089 366.484C211.011 366.873 211.011 367.339 211.011 367.727C211.089 368.736 211.322 369.668 211.478 370.678L212.021 373.319C212.099 373.707 212.177 374.173 212.41 374.561C212.565 374.949 212.954 375.415 213.42 375.726C213.886 376.192 214.43 376.658 215.051 377.124C215.362 377.435 215.595 377.59 216.061 377.745C216.605 378.056 217.304 378.134 217.848 378.211C220.334 378.522 222.587 379.454 224.53 380.852C224.53 380.852 224.53 379.143 224.53 378.988C224.53 378.522 224.374 377.978 224.064 377.59C223.209 376.503 222.121 376.037 220.956 375.881Z" fill="#FBBEBE"/>
<path opacity="0.1" d="M220.956 375.881C218.858 374.949 217.149 373.241 216.217 371.299C216.061 370.911 215.828 370.367 215.751 369.979C215.207 368.503 214.119 367.183 212.954 366.018C212.643 365.708 212.41 365.63 211.944 365.63C211.555 365.708 211.322 366.018 211.089 366.484C211.011 366.873 211.011 367.339 211.011 367.727C211.089 368.736 211.322 369.668 211.478 370.678L212.021 373.319C212.099 373.707 212.177 374.173 212.41 374.561C212.565 374.949 212.954 375.415 213.42 375.726C213.886 376.192 214.43 376.658 215.051 377.124C215.362 377.435 215.595 377.59 216.061 377.745C216.605 378.056 217.304 378.134 217.848 378.211C220.334 378.522 222.587 379.454 224.53 380.852C224.53 380.852 224.53 379.143 224.53 378.988C224.53 378.522 224.374 377.978 224.064 377.59C223.209 376.503 222.121 376.037 220.956 375.881Z" fill="black"/>
<path d="M244.963 356C246.507 356 247.76 354.679 247.76 353.049C247.76 351.419 246.507 350.098 244.963 350.098C243.418 350.098 242.166 351.419 242.166 353.049C242.166 354.679 243.418 356 244.963 356Z" fill="#2F2E41"/>
<path d="M243.176 351.263C242.321 351.107 241.544 351.185 240.923 351.573C240.612 351.884 240.379 352.117 240.068 352.583C239.524 353.748 238.903 354.913 238.592 356.078C238.437 357.087 238.281 358.175 238.048 359.262C237.504 361.126 235.95 362.757 235.795 364.853C235.717 365.785 235.873 366.717 235.251 367.416C235.096 367.494 234.94 367.727 234.785 367.805C234.319 368.115 233.931 368.426 233.62 369.047C233.464 369.435 233.154 369.901 232.765 370.212C232.221 370.6 231.289 370.6 230.978 371.222C230.667 371.765 231.444 372.62 231.289 373.474C231.134 374.328 230.434 374.406 230.046 374.794C229.58 375.338 229.114 376.037 228.881 376.736C227.016 377.124 224.918 376.658 223.442 375.415C224.064 377.357 224.374 379.531 224.374 381.628C224.452 382.25 224.297 383.026 223.908 383.492C226.239 383.647 228.414 384.036 230.667 384.735C231.6 385.045 232.61 385.045 233.62 384.735C234.086 384.424 234.63 384.191 234.94 383.57C236.184 382.327 237.504 381.007 237.737 379.298C237.815 378.289 237.815 377.435 237.737 376.347C237.815 375.105 238.126 373.862 238.359 372.853C238.903 370.367 239.524 368.038 239.68 365.63C239.757 364.154 241.078 362.912 241.777 361.592C243.098 359.029 244.419 356.311 244.497 353.515C244.497 352.583 244.264 351.418 243.176 351.263Z" fill="#2F2E41"/>
<path opacity="0.1" d="M243.176 351.263C242.321 351.107 241.544 351.185 240.923 351.573C240.612 351.884 240.379 352.117 240.068 352.583C239.524 353.748 238.903 354.913 238.592 356.078C238.437 357.087 238.281 358.175 238.048 359.262C237.504 361.126 235.95 362.757 235.795 364.853C235.717 365.785 235.873 366.717 235.251 367.416C235.096 367.494 234.94 367.727 234.785 367.805C234.319 368.115 233.931 368.426 233.62 369.047C233.464 369.435 233.154 369.901 232.765 370.212C232.221 370.6 231.289 370.6 230.978 371.222C230.667 371.765 231.444 372.62 231.289 373.474C231.134 374.328 230.434 374.406 230.046 374.794C229.58 375.338 229.114 376.037 228.881 376.736C227.016 377.124 224.918 376.658 223.442 375.415C224.064 377.357 224.374 379.531 224.374 381.628C224.452 382.25 224.297 383.026 223.908 383.492C226.239 383.647 228.414 384.036 230.667 384.735C231.6 385.045 232.61 385.045 233.62 384.735C234.086 384.424 234.63 384.191 234.94 383.57C236.184 382.327 237.504 381.007 237.737 379.298C237.815 378.289 237.815 377.435 237.737 376.347C237.815 375.105 238.126 373.862 238.359 372.853C238.903 370.367 239.524 368.038 239.68 365.63C239.757 364.154 241.078 362.912 241.777 361.592C243.098 359.029 244.419 356.311 244.497 353.515C244.497 352.583 244.264 351.418 243.176 351.263Z" fill="black"/>
<path d="M240.534 397.238C238.048 395.996 236.261 393.976 234.319 391.957C230.434 388.462 225.928 385.9 221.888 382.56C219.247 380.308 216.761 377.823 213.964 375.881C211.4 374.25 208.525 373.241 205.495 372.93C205.184 372.853 204.874 372.853 204.485 372.93C204.097 373.086 203.864 373.318 203.475 373.784C202.154 375.182 200.989 376.813 200.057 378.522C194.929 387.065 187.781 394.287 181.877 402.286C181.799 402.442 181.721 402.675 181.566 402.83C181.566 403.141 181.644 403.374 181.721 403.762L182.965 406.092C183.586 407.412 184.751 408.887 186.15 408.732C186.694 408.577 187.393 408.188 187.859 407.567L193.298 402.286L198.969 396.85C202.232 393.666 205.728 390.326 207.826 386.366C209.535 389.317 212.565 391.181 214.585 393.899C215.44 394.908 215.984 395.996 216.683 397.083C217.848 398.791 219.169 400.345 220.334 402.209L226.938 410.518C227.793 411.761 228.725 412.771 229.968 413.547C231.6 414.479 233.387 414.867 235.251 414.945C237.737 415.1 240.146 415.256 242.632 415.256C244.497 415.333 246.439 414.945 248.226 414.246C249.935 413.392 251.178 411.683 251.256 409.819C251.178 408.81 250.867 407.956 250.324 407.101C247.993 402.908 244.885 399.257 240.534 397.238Z" fill="#2F2E41"/>
<path d="M246.905 357.165C248.149 357.165 249.158 356.157 249.158 354.913C249.158 353.669 248.149 352.661 246.905 352.661C245.661 352.661 244.652 353.669 244.652 354.913C244.652 356.157 245.661 357.165 246.905 357.165Z" fill="#E8E8F0"/>
<path d="M246.284 353.359C246.75 354.369 246.827 355.456 246.439 356.544C246.128 357.553 245.584 358.485 245.04 359.495C244.574 360.427 243.875 361.281 243.254 362.135C246.672 362.291 249.935 360.893 252.965 359.339C255.451 358.019 257.782 356.388 259.103 353.981C258.248 354.136 257.471 353.981 256.85 353.592C256.228 353.204 255.607 352.583 255.14 351.962L253.431 350.098C253.043 349.709 252.81 349.166 252.421 348.7C252.033 348.079 251.955 347.302 251.955 346.448C251.333 347.069 250.557 347.768 249.702 348.311C248.459 349.166 247.138 349.709 245.817 350.408C245.429 350.719 244.419 351.03 244.652 351.729C245.118 352.272 245.973 352.738 246.284 353.359Z" fill="#FBBEBE"/>
<path opacity="0.1" d="M246.284 353.359C246.75 354.369 246.827 355.456 246.439 356.544C246.128 357.553 245.584 358.485 245.04 359.495C244.574 360.427 243.875 361.281 243.254 362.135C246.672 362.291 249.935 360.893 252.965 359.339C255.451 358.019 257.782 356.388 259.103 353.981C258.248 354.136 257.471 353.981 256.85 353.592C256.228 353.204 255.607 352.583 255.14 351.962L253.431 350.098C253.043 349.709 252.81 349.166 252.421 348.7C252.033 348.079 251.955 347.302 251.955 346.448C251.333 347.069 250.557 347.768 249.702 348.311C248.459 349.166 247.138 349.709 245.817 350.408C245.429 350.719 244.419 351.03 244.652 351.729C245.118 352.272 245.973 352.738 246.284 353.359Z" fill="black"/>
<path d="M246.283 353.592C245.662 354.602 245.662 355.922 246.283 356.854C246.361 356.932 246.75 357.786 246.827 357.786C246.905 357.786 247.138 357.709 247.216 357.631C248.07 356.777 248.692 355.922 249.313 355.068C249.935 354.136 250.945 353.592 252.033 353.282C253.353 353.204 254.752 353.67 255.84 354.524C256.306 354.68 256.772 355.068 257.16 355.534C257.316 355.922 257.549 356.466 257.549 356.932C257.86 359.961 258.015 363.067 257.937 366.096C258.015 368.348 257.86 370.523 257.549 372.697C257.393 373.862 257.083 374.949 256.927 375.959C256.85 376.969 256.772 377.9 256.85 378.988V383.259C256.85 384.113 256.85 384.735 257.005 385.589C257.16 386.521 257.549 387.375 257.937 388.307C258.248 389.317 258.403 390.404 258.481 391.414L259.025 395.763C259.18 397.161 259.336 398.558 258.559 399.801C258.17 400.267 257.627 400.733 257.316 401.199C255.917 402.985 256.306 405.703 255.84 407.955C255.373 409.586 254.441 411.062 253.12 412.227C252.11 413.159 250.79 413.625 249.469 413.547C247.682 413.236 246.672 411.295 246.206 409.586C245.74 407.878 245.662 405.936 244.497 404.383C243.487 403.218 242.399 402.441 241.234 401.587C239.913 400.733 238.98 399.646 238.592 398.17C238.514 397.627 238.592 396.85 238.514 396.306C238.359 394.675 237.194 393.277 235.717 392.501C234.785 392.19 233.775 392.035 233.154 391.181C234.474 390.326 235.407 389.084 235.795 387.686C236.184 386.21 236.339 384.657 236.339 383.181L236.65 378.056C236.727 375.804 236.805 373.551 237.893 371.455C238.281 370.523 238.903 369.668 239.369 368.814C239.913 367.494 240.534 366.251 240.845 364.853C241.467 362.757 242.244 360.737 242.943 358.64C243.098 357.631 243.487 356.699 244.108 355.689C244.497 355.068 245.351 353.825 246.283 353.592Z" fill="#E8E8F0"/>
<path d="M235.096 386.676H236.417L236.727 384.735C236.727 384.346 236.805 383.88 237.038 383.492C237.194 383.104 237.504 382.638 237.893 382.327C239.214 380.541 239.136 377.978 239.369 375.726C239.913 372.697 241 369.824 242.321 367.028L244.963 361.203C245.118 360.737 245.351 360.194 245.507 359.728C245.584 359.184 245.662 358.563 245.662 358.019C245.662 357.087 245.973 353.903 245.973 352.894C245.973 352.583 245.351 352.738 245.04 352.505C244.73 351.962 244.186 353.67 243.642 353.981C243.098 354.369 242.632 354.99 242.399 355.689C241.855 357.087 241.467 358.718 241 360.116C240.534 361.592 239.68 362.912 238.514 364.077C238.048 364.543 237.349 364.931 236.883 365.397C235.251 367.028 235.096 369.513 235.096 371.688C235.018 373.319 234.785 386.676 235.096 386.676Z" fill="#2F2E41"/>
<path d="M254.441 351.263C253.12 351.884 252.343 353.127 251.955 354.447C251.8 355.845 251.411 357.165 250.712 358.485C249.08 361.281 244.885 362.135 243.72 365.242C243.409 366.251 243.331 367.339 243.254 368.426C243.098 370.678 242.321 372.775 242.088 375.027C242.01 376.736 242.01 378.444 242.166 380.23L243.642 397.549C243.953 400.112 243.72 402.752 243.254 405.16C244.73 405.315 246.284 405.16 247.604 404.538C249.003 403.995 250.246 403.063 251.567 402.286C253.82 401.044 256.306 400.189 258.326 398.403C258.714 398.093 258.947 397.86 259.258 397.394C259.569 396.772 259.724 395.918 259.802 395.064C259.957 394.52 260.19 393.821 260.423 393.277C261.045 391.569 261.744 389.783 262.288 387.919C262.676 386.676 262.832 385.434 263.22 384.269C263.376 383.259 263.376 382.327 263.531 381.24C263.609 379.609 263.92 378.134 264.463 376.736C265.784 373.241 266.406 369.513 266.561 365.708C266.561 365.242 266.561 364.543 266.483 364.077C266.328 363.533 266.017 362.757 265.551 362.291C265.007 361.126 264.541 359.805 264.075 358.796C262.676 356.233 260.579 354.058 258.17 352.583C257.16 351.651 255.762 350.797 254.441 351.263Z" fill="#2F2E41"/>
<path d="M223.908 379.609C222.898 379.143 221.966 378.366 221.111 377.512C220.723 377.124 220.49 376.58 220.101 376.192C219.169 375.182 218.004 374.483 216.605 374.25C215.284 373.94 213.886 373.862 212.565 373.862C211.633 373.784 210.778 373.862 209.846 374.173C208.914 374.483 208.37 375.182 208.059 376.037C207.981 377.202 208.448 378.289 209.458 378.832C210.312 379.376 211.167 379.997 212.177 380.153C213.031 380.23 213.808 380.308 214.663 380.463C219.48 380.929 223.675 383.57 227.948 386.055C231.755 388.152 235.407 390.093 239.369 391.88C239.447 390.715 239.524 389.55 239.524 388.385C239.524 387.453 239.447 386.133 238.592 385.667C237.349 385.201 236.106 384.812 234.94 384.502C232.377 383.647 230.046 382.716 227.715 381.551C226.394 381.162 225.074 380.386 223.908 379.609Z" fill="#FBBEBE"/>
<path d="M244.963 352.428C249.683 352.428 253.509 348.533 253.509 343.729C253.509 338.926 249.683 335.031 244.963 335.031C240.243 335.031 236.417 338.926 236.417 343.729C236.417 348.533 240.243 352.428 244.963 352.428Z" fill="#FBBEBE"/>
<path d="M256.85 361.048C256.228 362.058 255.607 362.99 255.14 364.154C254.13 366.407 252.421 368.193 251.644 370.445C250.867 372.697 250.79 375.726 249.08 377.59C248.77 377.901 248.537 378.211 248.226 378.755C248.226 379.065 248.226 379.221 248.148 379.609C247.993 380.23 246.75 380.23 246.517 381.007C246.439 381.162 246.517 381.395 246.439 381.551C246.284 382.017 245.584 382.017 245.196 382.405C244.341 382.948 244.574 384.269 243.953 385.123C243.487 385.667 242.632 386.055 241.855 385.977C241 385.822 240.379 385.589 239.602 385.123C239.447 385.045 239.136 384.968 238.747 384.968C238.359 384.968 238.126 385.045 237.815 385.278C236.339 386.443 235.329 388.229 235.484 390.093C235.562 391.957 236.028 393.899 236.805 395.53C236.883 395.84 236.961 396.073 237.194 396.384C237.737 396.85 238.592 396.85 239.291 396.539C239.913 396.151 240.612 395.918 241.389 395.607C242.71 395.452 244.03 396.229 245.429 396.151C246.439 396.073 247.294 395.685 248.148 394.908C249.469 394.054 250.79 393.122 251.8 391.88C252.344 391.025 252.81 390.249 253.276 389.317C253.897 388.307 254.674 387.375 255.374 386.366L260.268 380.308C260.734 379.764 261.2 379.065 261.589 378.522C261.977 377.59 262.443 376.736 262.599 375.726C263.065 374.095 263.531 372.542 263.609 370.833C263.609 369.435 263.531 368.038 263.22 366.717C263.143 365.397 262.754 363.999 262.21 362.757C261.511 360.504 258.87 358.718 256.85 361.048Z" fill="#2F2E41"/>
<path d="M274.175 349.865C274.175 346.758 272.699 343.807 270.213 341.943C270.135 336.274 265.94 331.614 260.423 330.76C259.18 324.702 253.353 320.742 247.294 321.984C242.71 322.916 239.058 326.566 238.437 331.381C234.94 330.527 231.522 331.537 230.978 333.866C230.434 336.119 232.843 338.992 236.65 339.924C237.893 340.235 239.136 340.39 240.301 340.312C242.088 342.953 244.807 344.661 247.915 345.127C248.847 349.399 252.033 352.661 256.306 353.825C256.85 355.223 257.704 356.466 258.947 357.32C258.947 357.631 258.947 357.786 258.947 358.175C258.947 362.213 262.133 365.397 266.173 365.397C270.213 365.397 273.398 362.213 273.398 358.175C273.398 357.01 273.243 355.922 272.776 354.99C273.709 353.282 274.175 351.573 274.175 349.865Z" fill="#F86D70"/>
<path opacity="0.1" d="M233.309 334.177C233.853 331.925 237.194 330.993 240.767 331.692C241.7 326.256 246.361 322.14 251.877 322.062H252.499C251.489 321.751 250.401 321.596 249.391 321.596C243.797 321.674 239.214 325.712 238.281 331.226C234.785 330.372 231.367 331.381 230.823 333.711C230.279 335.963 232.687 338.837 236.494 339.769C237.116 339.924 237.893 340.079 238.592 340.157C235.096 339.147 232.843 336.507 233.309 334.177Z" fill="black"/>
<path opacity="0.1" d="M261.433 358.485C261.433 358.175 261.433 358.019 261.433 357.631C260.268 356.621 259.491 355.379 258.792 354.136C254.519 353.127 251.333 349.709 250.401 345.438C247.294 345.05 244.497 343.186 242.787 340.701C242.166 340.778 241.389 340.701 240.69 340.623C242.477 343.108 245.118 344.661 248.148 345.05C249.08 349.321 252.266 352.583 256.539 353.748C257.083 355.146 257.937 356.388 259.18 357.243C259.18 357.553 259.18 357.709 259.18 358.097C259.103 362.135 262.288 365.552 266.406 365.63C263.22 364.465 261.278 361.592 261.433 358.485Z" fill="black"/>
<path d="M248.99 346.862C249.571 346.421 249.558 345.426 248.961 344.641C248.364 343.855 247.409 343.576 246.828 344.017C246.247 344.458 246.261 345.452 246.858 346.238C247.454 347.023 248.409 347.303 248.99 346.862Z" fill="#FBBEBE"/>
<defs>
<linearGradient id="paint0_linear" x1="570.338" y1="439.142" x2="570.338" y2="265.502" gradientUnits="userSpaceOnUse">
<stop stop-color="#808080" stop-opacity="0.25"/>
<stop offset="0.54" stop-color="#808080" stop-opacity="0.12"/>
<stop offset="1" stop-color="#808080" stop-opacity="0.1"/>
</linearGradient>
<linearGradient id="paint1_linear" x1="205.217" y1="422.132" x2="205.217" y2="320.316" gradientUnits="userSpaceOnUse">
<stop stop-color="#808080" stop-opacity="0.25"/>
<stop offset="0.54" stop-color="#808080" stop-opacity="0.12"/>
<stop offset="1" stop-color="#808080" stop-opacity="0.1"/>
</linearGradient>
</defs>
</svg>
